<svg id="svg" version="1.1" width="500" height="500" xmlns="http://www.w3.org/2000/svg" xmlns:xlink="http://www.w3.org/1999/xlink" style="display: block;"><g id="svgg"><path id="path0" d="M107.999 65.946 C 102.247 68.067,92.800 76.873,92.800 80.114 C 92.800 80.528,92.425 81.302,91.966 81.834 C 90.177 83.906,85.600 91.598,85.600 92.533 C 85.600 93.076,85.144 93.808,84.587 94.160 C 84.031 94.512,82.861 96.326,81.987 98.191 C 81.114 100.056,80.185 101.586,79.921 101.591 C 79.658 101.596,78.758 103.127,77.921 104.993 C 77.085 106.860,75.770 109.020,75.000 109.793 C 74.230 110.567,73.600 111.542,73.600 111.960 C 73.600 112.378,72.520 114.320,71.200 116.276 C 69.880 118.232,68.800 120.230,68.800 120.716 C 68.800 121.202,68.484 121.600,68.097 121.600 C 66.852 121.600,65.323 126.300,66.210 127.401 C 66.653 127.950,67.278 129.660,67.599 131.200 C 68.676 136.362,71.998 143.184,78.034 152.627 C 81.329 157.782,85.909 164.979,88.212 168.621 C 90.516 172.262,93.845 177.482,95.612 180.221 C 97.378 182.959,101.653 189.610,105.112 195.000 C 112.596 206.660,112.188 206.522,113.977 198.000 C 114.762 194.260,115.682 191.200,116.022 191.200 C 116.361 191.200,117.287 189.400,118.078 187.200 C 118.869 185.000,119.750 183.200,120.037 183.200 C 120.323 183.200,121.206 181.760,122.000 180.000 C 122.794 178.240,123.709 176.800,124.035 176.800 C 124.360 176.800,125.202 175.360,125.907 173.600 C 126.611 171.840,127.495 170.400,127.872 170.400 C 128.249 170.400,129.242 168.873,130.079 167.007 C 130.915 165.140,132.230 162.980,133.000 162.207 C 133.770 161.433,134.400 160.278,134.400 159.640 C 134.400 159.002,134.850 158.192,135.400 157.840 C 135.950 157.488,137.117 155.760,137.992 154.000 C 138.868 152.240,139.875 150.588,140.230 150.330 C 140.584 150.071,141.488 148.752,142.237 147.398 C 142.987 146.045,144.458 143.376,145.507 141.469 C 146.557 139.561,147.640 137.820,147.915 137.600 C 148.190 137.380,149.124 135.850,149.990 134.200 C 150.855 132.550,151.818 131.200,152.128 131.200 C 152.438 131.200,152.946 130.390,153.256 129.400 C 153.566 128.410,154.850 126.095,156.110 124.256 C 157.369 122.417,158.400 120.582,158.400 120.180 C 158.400 119.777,159.050 118.860,159.844 118.141 C 160.638 117.423,161.785 115.567,162.393 114.017 C 163.001 112.468,163.737 111.200,164.028 111.200 C 164.319 111.200,165.206 109.760,166.000 108.000 C 166.794 106.240,167.690 104.800,167.993 104.800 C 168.295 104.800,169.231 103.364,170.071 101.609 C 170.912 99.854,171.815 98.414,172.079 98.409 C 172.342 98.404,173.242 96.873,174.079 95.007 C 174.915 93.140,176.230 90.980,177.000 90.207 C 177.770 89.433,178.400 88.278,178.400 87.640 C 178.400 87.002,178.854 86.192,179.408 85.840 C 179.962 85.488,181.132 83.760,182.008 82.000 C 182.884 80.240,184.140 78.379,184.800 77.864 C 186.969 76.174,186.416 68.228,184.000 66.372 C 181.454 64.416,113.186 64.033,107.999 65.946 " stroke="none" fill="#d44036" fill-rule="evenodd"></path><path id="path1" d="M287.877 194.277 C 289.126 195.526,292.653 201.073,306.265 223.200 C 307.213 224.740,308.566 227.260,309.274 228.800 C 309.981 230.340,311.105 232.214,311.772 232.965 C 313.350 234.742,312.204 235.930,307.023 237.888 C 302.794 239.486,299.393 242.413,297.600 246.000 C 296.940 247.320,295.934 248.892,295.364 249.493 C 293.939 250.996,294.028 251.117,300.800 256.876 C 304.100 259.682,306.980 262.166,307.200 262.396 C 308.361 263.608,327.760 278.935,329.111 279.708 C 331.294 280.957,335.563 275.830,333.804 274.071 C 333.533 273.800,332.679 271.088,331.906 268.046 C 330.377 262.026,327.210 255.147,322.948 248.588 C 321.451 246.285,316.354 238.100,311.621 230.400 C 291.490 197.652,288.365 192.800,287.408 192.800 C 286.766 192.800,286.937 193.337,287.877 194.277 " stroke="none" fill="#e2b33c" fill-rule="evenodd"></path><path id="path2" d="M286.388 198.533 C 286.372 205.249,283.421 213.744,280.042 216.800 C 279.799 217.020,278.913 218.550,278.074 220.200 C 277.235 221.850,276.294 223.200,275.983 223.200 C 275.672 223.200,274.798 224.822,274.041 226.805 C 273.170 229.085,272.321 230.214,271.732 229.877 C 271.219 229.583,271.059 229.631,271.376 229.981 C 271.693 230.332,271.302 231.560,270.507 232.710 C 269.711 233.859,268.845 235.398,268.583 236.128 C 268.320 236.859,266.462 239.808,264.453 242.682 C 262.444 245.557,260.800 248.237,260.800 248.639 C 260.800 249.041,259.557 250.998,258.037 252.989 C 256.517 254.979,255.446 256.779,255.656 256.990 C 255.867 257.200,255.490 257.827,254.819 258.384 C 254.149 258.941,253.600 259.874,253.600 260.458 C 253.600 261.042,253.028 261.841,252.328 262.232 C 251.629 262.624,251.096 263.185,251.145 263.480 C 251.296 264.407,248.762 268.862,245.114 274.081 C 243.181 276.846,241.600 279.475,241.600 279.923 C 241.600 280.371,240.812 281.472,239.849 282.369 C 238.886 283.266,238.367 284.000,238.694 284.000 C 239.022 284.000,238.652 285.080,237.873 286.400 C 237.093 287.720,236.173 288.800,235.828 288.800 C 235.482 288.800,235.200 289.340,235.200 290.000 C 235.200 290.660,234.819 291.200,234.353 291.200 C 233.887 291.200,233.686 291.492,233.907 291.850 C 234.128 292.207,233.429 293.523,232.354 294.774 C 231.280 296.025,230.400 297.448,230.400 297.935 C 230.400 298.423,229.140 300.692,227.600 302.979 C 226.060 305.266,224.800 307.455,224.800 307.844 C 224.800 308.234,224.080 309.204,223.200 310.000 C 222.320 310.796,221.600 311.884,221.600 312.416 C 221.600 312.949,220.903 314.270,220.052 315.353 C 213.572 323.590,212.688 331.083,217.865 333.871 C 221.147 335.639,289.245 335.576,292.800 333.802 C 296.924 331.744,305.668 324.819,304.182 324.788 C 303.862 324.781,304.009 324.511,304.510 324.188 C 305.548 323.517,308.014 319.513,310.335 314.731 C 311.207 312.933,312.479 310.999,313.160 310.433 C 313.842 309.867,314.400 308.934,314.400 308.359 C 314.400 307.784,314.865 306.839,315.433 306.257 C 316.001 305.676,317.260 303.580,318.232 301.600 C 319.204 299.620,320.003 298.360,320.009 298.800 C 320.014 299.240,320.903 297.764,321.983 295.520 C 323.064 293.276,324.499 290.981,325.174 290.422 C 325.848 289.862,326.400 288.979,326.400 288.460 C 326.400 287.940,327.496 286.025,328.835 284.204 C 331.252 280.917,331.258 280.887,329.585 279.992 C 326.214 278.188,295.133 252.618,294.564 251.181 C 294.435 250.854,294.795 250.094,295.364 249.493 C 295.934 248.892,296.940 247.320,297.600 246.000 C 299.393 242.413,302.794 239.486,307.023 237.888 C 312.586 235.786,313.282 234.866,311.258 232.292 C 310.346 231.133,309.600 229.829,309.600 229.396 C 309.600 228.962,308.674 227.121,307.542 225.304 C 306.411 223.487,301.609 215.719,296.871 208.043 C 286.954 191.974,286.405 191.476,286.388 198.533 " stroke="none" fill="#f7c541" fill-rule="evenodd"></path><path id="path3" d="M216.275 65.597 C 213.321 66.789,212.827 75.913,215.569 78.655 C 216.132 79.218,217.229 80.921,218.008 82.439 C 218.786 83.958,219.683 85.380,220.000 85.600 C 220.317 85.820,221.171 87.160,221.898 88.578 C 223.289 91.293,226.617 96.532,227.989 98.166 C 228.435 98.698,228.800 99.365,228.800 99.650 C 228.800 99.935,229.880 101.768,231.200 103.724 C 232.520 105.680,233.600 107.554,233.600 107.889 C 233.600 108.224,234.242 109.196,235.026 110.049 C 235.811 110.902,237.087 112.950,237.864 114.600 C 238.640 116.250,239.594 117.600,239.984 117.600 C 240.373 117.600,240.946 118.410,241.256 119.400 C 241.566 120.390,242.850 122.705,244.110 124.544 C 245.369 126.383,246.400 128.256,246.400 128.704 C 246.400 129.153,246.850 129.808,247.400 130.160 C 247.950 130.512,249.117 132.240,249.992 134.000 C 250.868 135.760,251.808 137.380,252.081 137.600 C 252.354 137.820,253.176 139.170,253.909 140.600 C 254.642 142.030,255.502 143.201,255.821 143.203 C 256.139 143.205,257.066 144.825,257.879 146.803 C 258.693 148.781,259.678 150.400,260.069 150.400 C 260.459 150.400,261.310 151.673,261.960 153.228 C 262.610 154.783,263.695 156.609,264.371 157.285 C 265.047 157.961,265.600 158.961,265.600 159.506 C 265.600 160.052,266.282 161.230,267.115 162.124 C 267.948 163.019,269.246 164.943,270.000 166.400 C 270.754 167.857,271.719 169.444,272.145 169.925 C 273.253 171.176,276.553 176.746,277.994 179.800 C 278.669 181.230,279.577 182.400,280.011 182.400 C 280.445 182.400,280.800 182.798,280.800 183.284 C 280.800 183.770,281.880 185.768,283.200 187.724 C 284.520 189.680,285.600 191.622,285.600 192.040 C 285.600 192.458,286.234 192.800,287.008 192.800 C 288.413 192.800,289.967 195.175,311.621 230.400 C 316.354 238.100,321.451 246.285,322.948 248.588 C 327.210 255.147,330.377 262.026,331.906 268.046 C 333.863 275.752,334.518 275.920,338.045 269.624 C 338.900 268.097,339.875 266.477,340.211 266.024 C 341.827 263.845,344.918 258.890,346.102 256.578 C 346.829 255.160,347.683 253.820,348.000 253.600 C 348.317 253.380,349.214 251.958,349.992 250.439 C 350.771 248.921,351.901 247.185,352.504 246.582 C 353.107 245.979,353.600 245.039,353.600 244.494 C 353.600 243.948,354.258 242.796,355.062 241.932 C 355.866 241.069,357.195 238.841,358.016 236.982 C 358.837 235.122,359.782 233.600,360.116 233.600 C 360.451 233.600,361.360 232.250,362.136 230.600 C 362.913 228.950,364.189 226.902,364.974 226.049 C 365.758 225.196,366.400 224.052,366.400 223.506 C 366.400 222.961,366.870 222.039,367.445 221.457 C 368.020 220.876,369.190 219.140,370.045 217.600 C 370.900 216.060,371.830 214.620,372.110 214.400 C 376.113 211.261,375.981 185.600,371.963 185.600 C 371.536 185.600,370.611 184.160,369.907 182.400 C 369.202 180.640,368.375 179.200,368.067 179.200 C 367.760 179.200,366.873 177.760,366.096 176.000 C 365.320 174.240,364.405 172.800,364.064 172.800 C 363.722 172.800,362.794 171.360,362.000 169.600 C 361.206 167.840,360.276 166.400,359.932 166.400 C 359.589 166.400,359.054 165.590,358.744 164.600 C 358.434 163.610,357.150 161.295,355.890 159.456 C 354.631 157.617,353.600 155.744,353.600 155.296 C 353.600 154.847,353.150 154.192,352.600 153.840 C 352.050 153.488,350.883 151.760,350.008 150.000 C 349.132 148.240,348.192 146.620,347.919 146.400 C 347.646 146.180,346.824 144.830,346.091 143.400 C 345.358 141.970,344.480 140.800,344.140 140.800 C 343.800 140.800,343.067 139.544,342.512 138.008 C 341.957 136.473,341.074 134.756,340.551 134.194 C 340.028 133.631,338.900 131.917,338.045 130.385 C 337.190 128.853,336.020 127.124,335.445 126.543 C 334.870 125.961,334.400 125.039,334.400 124.494 C 334.400 123.948,333.742 122.796,332.938 121.932 C 332.134 121.069,330.805 118.841,329.984 116.982 C 329.163 115.122,328.218 113.600,327.884 113.600 C 327.549 113.600,326.640 112.250,325.864 110.600 C 325.087 108.950,323.811 106.902,323.026 106.049 C 322.242 105.196,321.600 104.052,321.600 103.506 C 321.600 102.961,321.130 102.039,320.555 101.457 C 319.980 100.876,318.810 99.140,317.955 97.600 C 317.100 96.060,316.180 94.620,315.912 94.400 C 315.643 94.180,314.829 92.840,314.102 91.422 C 312.918 89.110,309.827 84.155,308.211 81.976 C 307.875 81.523,306.898 79.903,306.040 78.376 C 305.182 76.849,303.832 74.902,303.040 74.049 C 302.248 73.196,301.600 72.267,301.600 71.984 C 301.600 70.971,293.415 66.189,290.536 65.520 C 286.682 64.625,218.511 64.695,216.275 65.597 " stroke="none" fill="#0e9e57" fill-rule="evenodd"></path><path id="path4" d="M64.800 127.502 C 64.800 128.216,64.449 128.800,64.021 128.800 C 63.592 128.800,62.642 129.970,61.909 131.400 C 61.176 132.830,60.354 134.180,60.081 134.400 C 59.808 134.620,58.868 136.240,57.992 138.000 C 57.117 139.760,56.219 141.380,55.998 141.600 C 54.845 142.747,49.744 151.086,49.257 152.621 C 48.946 153.599,48.373 154.400,47.984 154.400 C 47.594 154.400,46.647 155.750,45.879 157.400 C 45.111 159.050,44.235 160.580,43.932 160.800 C 43.326 161.240,40.987 165.059,38.315 169.975 C 37.365 171.722,35.964 174.062,35.201 175.175 C 34.437 176.289,32.698 179.000,31.336 181.200 C 29.974 183.400,28.345 185.740,27.715 186.400 C 24.746 189.513,23.641 205.250,26.024 210.502 C 27.561 213.891,30.118 218.189,32.086 220.691 C 32.919 221.750,33.600 223.039,33.600 223.557 C 33.600 224.075,34.230 225.196,35.000 226.049 C 35.770 226.902,37.120 229.040,38.000 230.800 C 38.880 232.560,40.050 234.288,40.600 234.640 C 41.150 234.992,41.600 235.647,41.600 236.096 C 41.600 236.544,42.590 238.423,43.800 240.269 C 45.010 242.116,46.432 244.340,46.960 245.213 C 47.488 246.086,50.476 250.940,53.600 256.000 C 56.724 261.060,59.712 265.910,60.240 266.778 C 64.101 273.125,67.243 278.123,67.797 278.800 C 68.157 279.240,69.122 281.040,69.941 282.800 C 70.761 284.560,71.919 286.288,72.515 286.640 C 73.112 286.992,73.600 287.647,73.600 288.096 C 73.600 288.544,74.590 290.423,75.800 292.269 C 77.010 294.116,78.432 296.340,78.960 297.213 C 79.488 298.086,82.548 303.045,85.760 308.234 C 88.972 313.422,92.140 318.665,92.800 319.884 C 100.816 334.697,103.200 335.365,146.936 335.049 L 181.473 334.800 183.523 332.873 C 186.528 330.049,186.912 320.800,184.025 320.800 C 183.713 320.800,182.769 319.364,181.929 317.609 C 181.088 315.854,180.185 314.414,179.921 314.409 C 179.658 314.404,178.794 312.960,178.000 311.200 C 177.206 309.440,176.306 308.000,176.000 308.000 C 175.694 308.000,174.794 306.560,174.000 304.800 C 173.206 303.040,172.323 301.600,172.038 301.600 C 171.752 301.600,170.637 299.921,169.559 297.869 C 168.482 295.817,166.967 292.937,166.194 291.469 C 165.420 290.001,164.430 288.800,163.994 288.800 C 163.557 288.800,163.200 288.402,163.200 287.916 C 163.200 287.430,162.197 285.540,160.972 283.716 C 159.747 281.892,158.263 279.230,157.675 277.800 C 157.087 276.370,156.359 275.200,156.057 275.200 C 155.755 275.200,154.873 273.760,154.096 272.000 C 153.320 270.240,152.389 268.800,152.029 268.800 C 151.669 268.800,150.798 267.360,150.093 265.600 C 149.389 263.840,148.474 262.400,148.060 262.400 C 147.646 262.400,147.052 261.590,146.738 260.600 C 146.425 259.610,144.961 257.005,143.484 254.811 C 142.008 252.617,140.800 250.397,140.800 249.877 C 140.800 249.358,140.498 248.813,140.129 248.667 C 139.761 248.520,137.972 245.880,136.155 242.800 C 134.338 239.720,132.483 236.768,132.032 236.241 C 131.582 235.713,130.603 234.003,129.858 232.441 C 129.113 230.878,128.210 229.600,127.852 229.600 C 127.493 229.600,127.200 229.211,127.200 228.736 C 127.200 228.260,125.940 225.973,124.400 223.653 C 122.860 221.333,121.600 219.040,121.600 218.557 C 121.600 218.074,121.150 217.392,120.600 217.040 C 119.682 216.452,118.503 214.529,114.693 207.400 C 113.929 205.970,112.876 204.800,112.353 204.800 C 111.830 204.800,108.572 200.390,105.112 195.000 C 101.653 189.610,97.378 182.959,95.612 180.221 C 93.845 177.482,90.516 172.262,88.212 168.621 C 85.909 164.979,81.329 157.782,78.034 152.627 C 71.825 142.913,68.548 136.136,67.590 131.027 C 66.995 127.858,64.800 125.084,64.800 127.502 " stroke="none" fill="#577dbf" fill-rule="evenodd"></path></g></svg>